<?xml version="1.0" standalone="no"?><!DOCTYPE svg PUBLIC "-//W3C//DTD SVG 1.1//EN" "http://www.w3.org/Graphics/SVG/1.1/DTD/svg11.dtd">
<svg t="1762676447382" class="icon" viewBox="0 0 1024 1024" version="1.1" xmlns="http://www.w3.org/2000/svg" p-id="4598"
     width="200" height="200"><path d="M77.184 516.608c154.048-46.656 273.664-185.28 318.528-337.28 4.736-16 33.088-15.168 36.864 1.152 34.56 150.336 111.04 284.16 299.2 336.128 15.872 4.416 16.832 32 1.152 36.992-166.848 53.312-225.92 136.768-299.136 342.208-4.992 14.08-25.92 13.056-30.016-1.28-59.776-208.448-192.832-286.08-329.088-333.824-16-5.632-13.76-39.168 2.56-44.096zM645.824 261.568a210.176 210.176 0 0 0 165.76-107.392c3.584-6.336 15.488-3.264 15.552 3.968 0.448 66.816 20.288 130.56 94.976 170.24 6.272 3.328 4.096 15.104-3.008 15.744-75.52 6.912-108.352 36.672-158.656 116.672-3.392 5.44-12.16 3.072-12.544-3.392-5.76-93.76-54.08-144.448-107.264-177.408-6.272-3.84-2.112-17.92 5.184-18.432z" fill="#ffffff" p-id="4599"></path></svg>